<?xml version="1.0" encoding="utf-8"?>
<!-- Generator: Adobe Illustrator 22.1.0, SVG Export Plug-In . SVG Version: 6.00 Build 0)  -->
<svg version="1.1" id="Layer_1" xmlns="http://www.w3.org/2000/svg" xmlns:xlink="http://www.w3.org/1999/xlink" x="0px" y="0px"
	 viewBox="0 0 915.5 596.9" style="enable-background:new 0 0 915.5 596.9;" xml:space="preserve">
<style type="text/css">
	.st0{fill:none;}
	.st1{fill:#323E48;}
	.st2{font-family:'RobotoCondensed-Bold';}
	.st3{font-size:16px;}
	.st4{fill:#FFFFFF;}
	.st5{fill:#C82A2D;}
	.st6{fill:#3D6EB6;}
	.st7{fill:#54009B;}
	.st8{fill:#19643C;}
	.st9{fill:#EAEAEA;}
	.st10{fill:none;stroke:#54009B;stroke-width:4;stroke-miterlimit:10;}
	.st11{fill:none;stroke:#54009B;stroke-width:4;stroke-miterlimit:10;stroke-dasharray:10.1347,4.0539;}
	.st12{fill:none;stroke:#19643C;stroke-width:4;stroke-miterlimit:10;}
	.st13{fill:none;stroke:#19643C;stroke-width:4;stroke-miterlimit:10;stroke-dasharray:5.714,2.2856;}
	.st14{fill:none;stroke:#19643C;stroke-width:4;stroke-miterlimit:10;stroke-dasharray:10.0635,4.0254;}
	.st15{fill:none;stroke:#7B7B7B;stroke-width:2;stroke-miterlimit:10;}
	.st16{fill:#4D5761;}
	.st17{font-size:14px;}
	.st18{fill:#4977BA;}
	.st19{fill:none;stroke:#19653D;stroke-width:4;stroke-miterlimit:10;}
	.st20{fill:none;stroke:#19653D;stroke-width:4;stroke-miterlimit:10;stroke-dasharray:5.714,2.2856;}
	.st21{fill:none;stroke:#19653D;stroke-width:4;stroke-miterlimit:10;stroke-dasharray:10.0635,4.0254;}
	.st22{fill:#272525;}
	.st23{fill:none;stroke:#EAEAEA;stroke-miterlimit:10;}
	.st24{fill:none;stroke:#EAEAEA;stroke-miterlimit:10;stroke-dasharray:9.5005,3.8002;}
	.st25{fill:none;stroke:#000000;stroke-width:5;stroke-miterlimit:10;}
	.st26{font-size:20px;}
	.st27{font-size:25px;}
	.st28{font-size:38px;}
	.pulse {
		animation: pulse 5s linear infinite;
	}
	@keyframes pulse {
	 0% { 
	 	opacity: 0.3;
	 	stroke-width:81.1;
	 }
	  50% { 
	 	opacity: 1;
	 	stroke-width:85;
	 }
	 100%{ 
	 	opacity:0.3;
	 	stroke-width:81.1;
	 }
	}
	</style>
<g>
	<rect x="193.1" y="4.7" class="st0" width="154.3" height="50.7"/>
	<text transform="matrix(1 0 0 1 193.0555 16.7001)" class="st1 st2 st3">U.S. Non-Financial </text>
	<text transform="matrix(1 0 0 1 193.0555 35.7001)" class="st1 st2 st3">Corporate Debt-to-GDP </text>
	<text transform="matrix(1 0 0 1 193.0555 54.7001)" class="st1 st2 st3">(Quarterly)</text>
	<rect x="547" y="4.7" class="st0" width="165.7" height="50.7"/>
	<text transform="matrix(1 0 0 1 547.0457 16.7001)" class="st1 st2 st3">Annual Moving Average </text>
	<text transform="matrix(1 0 0 1 547.0457 35.7001)" class="st1 st2 st3">Default Rate for </text>
	<text transform="matrix(1 0 0 1 547.0457 54.7001)" class="st1 st2 st3">Corporate Bonds</text>
	<g>
		<g>
			<rect x="9.7" y="5.7" class="st4" width="171.6" height="35.7"/>
			<path class="st5" d="M180.2,6.7v33.7H10.7V6.7H180.2 M182.2,4.7H8.7v37.7h173.6V4.7H182.2z"/>
		</g>
		<g>
			<rect x="22.2" y="18.5" class="st6" width="72.9" height="10.1"/>
			<rect x="95.1" y="18.5" class="st7" width="22.5" height="10.1"/>
			<rect x="120.7" y="18.5" class="st7" width="22.5" height="10.1"/>
			<rect x="146.2" y="18.5" class="st7" width="22.5" height="10.1"/>
		</g>
	</g>
	<g>
		<g>
			<rect x="363.7" y="5.7" class="st4" width="171.6" height="35.7"/>
			<path class="st5" d="M534.2,6.7v33.7H364.7V6.7H534.2 M536.2,4.7H362.7v37.7h173.6V4.7H536.2z"/>
		</g>
		<g>
			<rect x="376.2" y="18.5" class="st5" width="72.9" height="10.1"/>
			<rect x="449.1" y="18.5" class="st8" width="22.5" height="10.1"/>
			<rect x="474.7" y="18.5" class="st8" width="22.5" height="10.1"/>
			<rect x="500.2" y="18.5" class="st8" width="22.5" height="10.1"/>
		</g>
	</g>
</g>
<rect x="763.5" y="162.8" class="st9" width="61.8" height="317.9"/>
<g>
	<g>
		<line class="st10" x1="761.1" y1="188.4" x2="765.8" y2="190.4"/>
		<polyline class="st11" points="769.5,191.9 771.6,192.8 816.3,289.5 818.5,291.1 		"/>
		<line class="st10" x1="820" y1="292.4" x2="824" y2="295.4"/>
	</g>
</g>
<g>
	<g>
		<line class="st12" x1="820.8" y1="254.2" x2="817.3" y2="250.6"/>
		<line class="st13" x1="815.8" y1="248.9" x2="811" y2="244"/>
		<polyline class="st12" points="810.1,243.2 806.6,239.6 805.5,244.5 		"/>
		<line class="st14" x1="804.6" y1="248.4" x2="763.5" y2="424.8"/>
		<line class="st12" x1="763.1" y1="426.8" x2="762" y2="431.6"/>
	</g>
</g>
<g>
	<g>
		<line class="st10" x1="761.1" y1="188.4" x2="765.8" y2="190.4"/>
		<polyline class="st11" points="769.5,191.9 771.6,192.8 816.3,289.5 818.5,291.1 		"/>
		<line class="st10" x1="820" y1="292.4" x2="824" y2="295.4"/>
	</g>
</g>
<g>
	<g>
		<line class="st12" x1="820.8" y1="254.2" x2="817.3" y2="250.6"/>
		<line class="st13" x1="815.8" y1="248.9" x2="811" y2="244"/>
		<polyline class="st12" points="810.1,243.2 806.6,239.6 805.5,244.5 		"/>
		<line class="st14" x1="804.6" y1="248.4" x2="763.5" y2="424.8"/>
		<line class="st12" x1="763.1" y1="426.8" x2="762" y2="431.6"/>
	</g>
</g>
<line class="st15" x1="84.5" y1="227.1" x2="825.5" y2="227.1"/>
<line class="st15" x1="84.5" y1="195.7" x2="825.5" y2="195.7"/>
<line class="st15" x1="84.5" y1="259.8" x2="825.5" y2="259.8"/>
<g>
	<path class="st16" d="M218.4,240c-14.1,0-25.5-11.4-25.5-25.5s11.4-25.5,25.5-25.5s25.5,11.4,25.5,25.5S232.4,240,218.4,240z"/>
	<g>
		<rect x="197.8" y="201.7" class="st0" width="41.2" height="25.6"/>
		<text transform="matrix(1 0 0 1 200.2589 212.2291)" class="st4 st2 st17">$340B</text>
		<text transform="matrix(1 0 0 1 203.1672 227.2291)" class="st4 st2 st17">LOST</text>
	</g>
</g>
<line class="st15" x1="84.5" y1="291" x2="825.5" y2="291"/>
<line class="st15" x1="84.5" y1="323.4" x2="829.6" y2="323.4"/>
<line class="st15" x1="84.5" y1="354.7" x2="825.5" y2="354.7"/>
<line class="st15" x1="84.5" y1="386.6" x2="825.5" y2="386.6"/>
<line class="st15" x1="84.5" y1="418.4" x2="825.5" y2="418.4"/>
<line class="st15" x1="84.5" y1="450.3" x2="825.5" y2="450.3"/>
<g transform="translate(0,0)">
</g>
<line class="st15" x1="825.5" y1="442.3" x2="829.6" y2="442.3"/>
<line class="st15" x1="825.5" y1="402.5" x2="829.6" y2="402.5"/>
<line class="st15" x1="825.5" y1="362.7" x2="829.6" y2="362.7"/>
<line class="st15" x1="825.5" y1="283.7" x2="829.6" y2="283.7"/>
<line class="st15" x1="825.5" y1="243.8" x2="829.6" y2="243.8"/>
<line class="st15" x1="825.5" y1="203.9" x2="829.6" y2="203.9"/>

<g>
	<g>
		<line class="st10" x1="761.2" y1="188.4" x2="765.8" y2="190.4"/>
		<polyline class="st11" points="769.5,191.9 771.8,192.8 816.5,289.5 818.5,291.1 		"/>
		<line class="st10" x1="820.1" y1="292.4" x2="824" y2="295.4"/>
	</g>
</g>
<line class="st15" x1="84.5" y1="163.5" x2="829.6" y2="163.5"/>
<g>
	<g>
		<line class="st19" x1="820.8" y1="254.2" x2="817.3" y2="250.6"/>
		<line class="st20" x1="815.8" y1="248.9" x2="811" y2="244"/>
		<polyline class="st19" points="810.2,243.2 806.8,239.6 805.6,244.5 		"/>
		<line class="st21" x1="804.8" y1="248.4" x2="763.6" y2="424.8"/>
		<line class="st19" x1="763.2" y1="426.8" x2="762" y2="431.6"/>
	</g>
</g>
<line class="st15" x1="89.4" y1="163.4" x2="89.4" y2="487.3"/>
<rect x="52.1" y="157.9" class="st0" width="33.4" height="330.7"/>
<text transform="matrix(1 0 0 1 52.0401 168.46)" class="st22 st2 st17">47%</text>
<text transform="matrix(1 0 0 1 52.0401 200.46)" class="st22 st2 st17">46%</text>
<text transform="matrix(1 0 0 1 52.0401 232.46)" class="st22 st2 st17">45%</text>
<text transform="matrix(1 0 0 1 52.0401 264.46)" class="st22 st2 st17">44%</text>
<text transform="matrix(1 0 0 1 52.0401 296.46)" class="st22 st2 st17">43%</text>
<text transform="matrix(1 0 0 1 52.0401 328.46)" class="st22 st2 st17">42%</text>
<text transform="matrix(1 0 0 1 52.0401 360.46)" class="st22 st2 st17">41%</text>
<text transform="matrix(1 0 0 1 52.0401 392.46)" class="st22 st2 st17">40%</text>
<text transform="matrix(1 0 0 1 52.0401 424.46)" class="st22 st2 st17">39%</text>
<text transform="matrix(1 0 0 1 52.0401 456.46)" class="st22 st2 st17">38%</text>
<text transform="matrix(1 0 0 1 52.0401 488.46)" class="st22 st2 st17">37%</text>
<rect x="839.7" y="158" transform="matrix(1 -3.868216e-03 3.868216e-03 1 -1.2572 3.3009)" class="st0" width="26" height="337.3"/>
<text transform="matrix(1 0 0 1 839.0593 168.46)" class="st22 st2 st17">16%</text>
<text transform="matrix(1 0 0 1 839.2593 208.46)" class="st22 st2 st17">14%</text>
<text transform="matrix(1 0 0 1 839.3593 248.46)" class="st22 st2 st17">12%</text>
<text transform="matrix(1 0 0 1 839.5593 288.46)" class="st22 st2 st17">10%</text>
<text transform="matrix(1 0 0 1 839.6592 328.46)" class="st22 st2 st17">8%</text>
<text transform="matrix(1 0 0 1 839.8593 368.46)" class="st22 st2 st17">6%</text>
<text transform="matrix(1 0 0 1 839.9592 408.46)" class="st22 st2 st17">4%</text>
<text transform="matrix(1 0 0 1 840.1592 448.46)" class="st22 st2 st17">2%</text>
<text transform="matrix(1 0 0 1 840.2593 488.46)" class="st22 st2 st17">0%</text>
<g>
	<path class="st5" d="M887.1,263.6h18.5v4.9c0,2.2-0.7,3.9-2.1,5.2c-1.4,1.3-3.2,1.9-5.6,2h-3c-2.4,0-4.3-0.6-5.7-1.9
		s-2.1-3-2.1-5.3L887.1,263.6L887.1,263.6z M902.5,267.3h-12.3v1.1c0,1.2,0.3,2.1,1,2.6s1.8,0.8,3.4,0.8h3.2c1.7,0,2.9-0.2,3.6-0.7
		c0.7-0.5,1-1.3,1.1-2.5V267.3z"/>
	<path class="st5" d="M886.8,283.6c0-1.8,0.6-3.3,1.7-4.3c1.1-1,2.7-1.5,4.7-1.5h1.1c2.2,0,3.8,0.5,5,1.4s1.8,2.3,1.8,4.1
		c0,1.7-0.6,3-1.7,3.9c-1.1,0.9-2.7,1.3-4.9,1.3h-1.8v-7.1c-1,0.1-1.8,0.3-2.3,0.7s-0.7,1-0.7,1.8c0,1.2,0.4,2.2,1.3,3l-2.2,1.4
		c-0.6-0.4-1.1-1.1-1.5-1.9S886.8,284.6,886.8,283.6z M895.2,281.4v3.6h0.3c0.8,0,1.5-0.2,1.9-0.4c0.4-0.3,0.6-0.7,0.6-1.3
		s-0.2-1.1-0.7-1.4S896.2,281.4,895.2,281.4z"/>
	<path class="st5" d="M887.1,291.3h11v-1.7h2.7v1.7h1.2c1.5,0,2.7,0.4,3.5,1.2c0.8,0.8,1.3,1.9,1.3,3.3c0,0.4-0.1,1-0.3,1.6h-2.9
		c0.1-0.2,0.1-0.5,0.1-0.9c0-1.1-0.6-1.6-1.9-1.6h-1.1v2.1H898v-2.1h-11L887.1,291.3L887.1,291.3z"/>
	<path class="st5" d="M887.1,305.6c0.2-0.1,0.6-0.2,1.1-0.3c-0.9-0.6-1.3-1.5-1.3-2.6c0-1.2,0.4-2.1,1.1-2.9s1.7-1.1,3-1.1
		c1.4,0,2.6,0.5,3.3,1.4s1.2,2.2,1.2,4v1.1h1.1c0.6,0,1.1-0.1,1.3-0.3s0.4-0.5,0.4-0.9c0-0.9-0.5-1.3-1.6-1.3v-3.6
		c1.3,0,2.3,0.5,3.1,1.4s1.2,2.2,1.2,3.6c0,1.5-0.4,2.7-1.2,3.5s-1.9,1.2-3.4,1.2h-6.5c-1.2,0-2.1,0.2-2.8,0.5h-0.2v-3.7
		L887.1,305.6L887.1,305.6z M889.6,303.4c0,0.4,0.1,0.7,0.2,1c0.2,0.3,0.4,0.5,0.6,0.6h2.9v-0.9c0-0.6-0.2-1.1-0.6-1.4
		c-0.4-0.4-0.9-0.5-1.6-0.5C890.1,302.2,889.6,302.6,889.6,303.4z"/>
	<path class="st5" d="M888.3,318c-1-0.7-1.5-1.7-1.5-3s0.4-2.2,1.3-2.9c0.9-0.7,2.1-1,3.8-1h8.9v3.6h-9c-1.3,0-2,0.5-2,1.3
		s0.4,1.4,1.1,1.8h9.9v3.6h-13.7v-3.3L888.3,318z"/>
	<path class="st5" d="M887.1,327.8v-3.6h19.5v3.6H887.1z"/>
	<path class="st5" d="M904.2,334.8h-3.4v1.8h-2.7v-1.8h-6.8c-0.5,0-0.9,0.1-1.1,0.2c-0.2,0.1-0.3,0.4-0.3,0.9c0,0.3,0,0.6,0.1,0.9
		h-2.8c-0.2-0.6-0.3-1.3-0.3-2c0-2.3,1.3-3.5,4-3.5h7.3v-1.6h2.7v1.6h3.4v3.5H904.2z"/>
	<path class="st5" d="M893.8,350.4v-1.9H887v-3.7h18.5v6c0,1.9-0.5,3.3-1.5,4.3s-2.3,1.5-4.1,1.5c-2.5,0-4.2-0.9-5.2-2.7l-7.6,3.2
		H887v-4L893.8,350.4z M897,348.5v2.1c0,0.7,0.2,1.3,0.7,1.7s1.2,0.6,2,0.6c1.9,0,2.8-0.7,2.8-2.2v-2.2H897z"/>
	<path class="st5" d="M887.1,365.5c0.2-0.1,0.6-0.2,1.1-0.3c-0.9-0.6-1.3-1.5-1.3-2.6c0-1.2,0.4-2.1,1.1-2.9s1.7-1.1,3-1.1
		c1.4,0,2.6,0.5,3.3,1.4s1.2,2.2,1.2,4v1.1h1.1c0.6,0,1.1-0.1,1.3-0.3s0.4-0.5,0.4-0.9c0-0.9-0.5-1.3-1.6-1.3V359
		c1.3,0,2.3,0.5,3.1,1.4s1.2,2.2,1.2,3.6c0,1.5-0.4,2.7-1.2,3.5s-1.9,1.2-3.4,1.2h-6.5c-1.2,0-2.1,0.2-2.8,0.5h-0.2v-3.7H887.1z
		 M889.6,363.4c0,0.4,0.1,0.7,0.2,1c0.2,0.3,0.4,0.5,0.6,0.6h2.9v-0.9c0-0.6-0.2-1.1-0.6-1.4c-0.4-0.4-0.9-0.5-1.6-0.5
		C890.1,362.2,889.6,362.6,889.6,363.4z"/>
	<path class="st5" d="M904.2,375.4h-3.4v1.8h-2.7v-1.8h-6.8c-0.5,0-0.9,0.1-1.1,0.2c-0.2,0.1-0.3,0.4-0.3,0.9c0,0.3,0,0.6,0.1,0.9
		h-2.8c-0.2-0.6-0.3-1.3-0.3-2c0-2.3,1.3-3.5,4-3.5h7.3v-1.6h2.7v1.6h3.4v3.5H904.2z"/>
	<path class="st5" d="M886.8,384.8c0-1.8,0.6-3.3,1.7-4.3c1.1-1,2.7-1.5,4.7-1.5h1.1c2.2,0,3.8,0.5,5,1.4s1.8,2.3,1.8,4.1
		c0,1.7-0.6,3-1.7,3.9c-1.1,0.9-2.7,1.3-4.9,1.3h-1.8v-7.1c-1,0.1-1.8,0.3-2.3,0.7s-0.7,1-0.7,1.8c0,1.2,0.4,2.2,1.3,3l-2.2,1.4
		c-0.6-0.4-1.1-1.1-1.5-1.9S886.8,385.8,886.8,384.8z M895.2,382.5v3.6h0.3c0.8,0,1.5-0.2,1.9-0.4c0.4-0.3,0.6-0.7,0.6-1.3
		s-0.2-1.1-0.7-1.4S896.2,382.6,895.2,382.5z"/>
</g>
<g>
	<path class="st6" d="M9,407.6h12.8c1.9,0,3.4,0.5,4.4,1.6c1,1,1.5,2.5,1.5,4.5s-0.5,3.5-1.5,4.5s-2.5,1.6-4.5,1.6H9V416h12.7
		c1,0,1.8-0.2,2.2-0.5c0.4-0.3,0.7-1,0.7-1.8s-0.2-1.5-0.7-1.8s-1.2-0.5-2.2-0.5H9V407.6z"/>
	<path class="st6" d="M25.7,404.6c-0.6,0-1-0.2-1.4-0.6s-0.6-0.9-0.6-1.5s0.2-1.1,0.6-1.5s0.8-0.6,1.4-0.6s1.1,0.2,1.4,0.6
		c0.4,0.4,0.5,0.9,0.5,1.5s-0.2,1.1-0.5,1.5C26.7,404.4,26.3,404.6,25.7,404.6z"/>
	<path class="st6" d="M22.7,389.4c-0.8,0-1.3,0.2-1.7,0.6c-0.4,0.4-0.8,1.1-1.2,2.1c-0.7,1.9-1.5,3.2-2.5,4
		c-0.9,0.8-2.1,1.2-3.3,1.2c-1.6,0-2.8-0.6-3.8-1.7c-0.9-1.1-1.4-2.5-1.4-4.2c0-1.1,0.2-2.1,0.7-3s1.2-1.6,2-2
		c0.9-0.5,1.9-0.7,3-0.7v3.7c-0.9,0-1.5,0.2-2,0.6s-0.7,0.9-0.7,1.6s0.2,1.2,0.6,1.5c0.4,0.4,0.9,0.5,1.6,0.5c0.5,0,1-0.2,1.4-0.6
		s0.8-1.1,1.3-2.2c0.7-1.8,1.5-3.1,2.4-3.9s2.2-1.2,3.6-1.2c1.6,0,2.9,0.5,3.8,1.5s1.4,2.4,1.4,4.2c0,1.2-0.2,2.3-0.7,3.3
		s-1.2,1.8-2.1,2.3c-0.9,0.6-2,0.8-3.2,0.8v-3.7c1.1,0,1.8-0.2,2.3-0.6s0.7-1.1,0.7-2C24.7,390,24,389.4,22.7,389.4z"/>
	<path class="st6" d="M25.7,383c-0.6,0-1-0.2-1.4-0.6s-0.6-0.9-0.6-1.5s0.2-1.1,0.6-1.5s0.8-0.6,1.4-0.6s1.1,0.2,1.4,0.6
		c0.4,0.4,0.5,0.9,0.5,1.5s-0.2,1.1-0.5,1.5C26.7,382.8,26.3,383,25.7,383z"/>
	<path class="st6" d="M27.5,356.6v3.7l-12.1,5.5h12.1v3.7H9v-3.7l12.1-5.5H9v-3.7H27.5z"/>
	<path class="st6" d="M20,344.1v5.8h7.5v3.7H9v-10.2h3.1v6.5h4.7v-5.8H20z"/>
	<path class="st6" d="M21.4,328.8c2.1,0.1,3.7,0.7,4.8,1.8c1.1,1.1,1.6,2.6,1.6,4.6c0,2.1-0.7,3.7-2.1,4.8c-1.4,1.1-3.3,1.7-5.9,1.7
		h-3.1c-2.5,0-4.5-0.6-5.9-1.7c-1.4-1.2-2.1-2.8-2.1-4.8s0.6-3.5,1.7-4.6c1.1-1,2.7-1.6,4.8-1.8v3.7c-1.3,0-2.2,0.2-2.7,0.6
		s-0.7,1-0.7,2s0.3,1.7,1,2.1s1.8,0.6,3.4,0.7h3.5c1.8,0,3.1-0.2,3.8-0.6c0.7-0.4,1-1.1,1-2.1s-0.2-1.7-0.7-2
		c-0.5-0.4-1.3-0.6-2.6-0.6v-3.8L21.4,328.8L21.4,328.8z"/>
	<path class="st6" d="M27.5,326.5H9v-4.9c0-2.2,0.7-3.9,2.1-5.2c1.4-1.3,3.2-1.9,5.6-2h3c2.4,0,4.3,0.6,5.7,1.9
		c1.4,1.3,2.1,3,2.1,5.3C27.5,321.6,27.5,326.5,27.5,326.5z M12.1,322.7h12.3v-1.1c0-1.2-0.3-2.1-1-2.6s-1.8-0.8-3.4-0.8h-3.2
		c-1.7,0-2.9,0.2-3.6,0.7c-0.7,0.5-1,1.3-1.1,2.5C12.1,321.4,12.1,322.7,12.1,322.7z"/>
	<path class="st6" d="M21.1,305.5v6.2h-3v-6.2H21.1z"/>
	<path class="st6" d="M10.4,298.3h3.4v-1.8h2.7v1.8h6.8c0.5,0,0.9-0.1,1.1-0.2s0.3-0.4,0.3-0.9c0-0.3,0-0.6-0.1-0.9h2.8
		c0.2,0.6,0.3,1.3,0.3,2c0,2.3-1.3,3.5-4,3.5h-7.3v1.6h-2.7v-1.6h-3.4v-3.5H10.4z"/>
	<path class="st6" d="M20.2,295.3c-2.1,0-3.7-0.5-4.9-1.5s-1.8-2.3-1.8-4.1c0-1.8,0.6-3.1,1.8-4.1s2.8-1.5,4.9-1.5h0.9
		c2.1,0,3.7,0.5,4.9,1.5c1.2,1,1.8,2.3,1.8,4.1c0,1.8-0.6,3.1-1.8,4.1c-1.2,1-2.8,1.5-4.9,1.5H20.2z M21.1,291.7
		c2.5,0,3.7-0.7,3.7-2c0-1.2-1-1.9-3.1-2h-1.5c-1.3,0-2.2,0.2-2.8,0.5s-0.9,0.8-0.9,1.5c0,0.6,0.3,1.1,0.9,1.4s1.5,0.5,2.8,0.5h0.9
		V291.7z"/>
	<path class="st6" d="M21.1,275.5v6.2h-3v-6.2H21.1L21.1,275.5z"/>
	<path class="st6" d="M25.4,259.8c0.8,0.7,1.4,1.6,1.8,2.6s0.6,2.2,0.6,3.4c0,2.1-0.7,3.8-2,5s-3.2,1.8-5.7,1.8h-3.3
		c-2.5,0-4.5-0.6-5.9-1.7s-2.1-2.7-2.1-4.9c0-2,0.5-3.5,1.5-4.5s2.5-1.6,4.7-1.8v3.6c-1.2,0.1-2,0.3-2.4,0.7c-0.4,0.4-0.6,1-0.6,1.8
		c0,1,0.4,1.7,1.1,2.2s1.9,0.7,3.5,0.7H20c1.7,0,2.9-0.3,3.7-0.8c0.8-0.5,1.1-1.3,1.1-2.5c0-0.7-0.1-1.3-0.4-1.8l-0.2-0.3h-3.4v2.6
		H18v-6.4h7.4V259.8z"/>
	<path class="st6" d="M27.5,257.1H9v-4.9c0-2.2,0.7-3.9,2.1-5.2s3.2-1.9,5.6-2h3c2.4,0,4.3,0.6,5.7,1.9c1.4,1.3,2.1,3,2.1,5.3
		C27.5,252.2,27.5,257.1,27.5,257.1z M12.1,253.4h12.3v-1.1c0-1.2-0.3-2.1-1-2.6s-1.8-0.8-3.4-0.8h-3.2c-1.7,0-2.9,0.2-3.6,0.7
		c-0.7,0.5-1,1.3-1.1,2.5C12.1,252.1,12.1,253.4,12.1,253.4z"/>
	<path class="st6" d="M21,238.7h6.5v3.7H9v-6.3c0-1.8,0.6-3.3,1.7-4.4c1.1-1.1,2.6-1.6,4.4-1.6c1.8,0,3.2,0.5,4.3,1.6
		c1,1.1,1.6,2.6,1.6,4.5C21,236.2,21,238.7,21,238.7z M17.9,238.7v-2.6c0-0.7-0.2-1.3-0.7-1.7s-1.1-0.6-2-0.6s-1.7,0.2-2.2,0.6
		s-0.9,1-0.9,1.7v2.6H17.9z"/>
</g>
<line class="st15" x1="820.5" y1="482.4" x2="820.5" y2="487.3"/>
<line class="st15" x1="799.1" y1="482.4" x2="799.1" y2="487.3"/>
<line class="st15" x1="777" y1="482.4" x2="777" y2="487.3"/>
<line class="st15" x1="756.2" y1="482.4" x2="756.2" y2="487.3"/>
<line class="st15" x1="734.8" y1="482.4" x2="734.8" y2="487.3"/>
<line class="st15" x1="712.8" y1="482.4" x2="712.8" y2="487.3"/>
<line class="st15" x1="692.3" y1="482.1" x2="692.3" y2="487.1"/>
<line class="st15" x1="670.3" y1="482.1" x2="670.3" y2="487.1"/>
<line class="st15" x1="648.8" y1="482.1" x2="648.8" y2="487.1"/>
<line class="st15" x1="627.1" y1="482.1" x2="627.1" y2="487.1"/>
<line class="st15" x1="606" y1="482.1" x2="606" y2="487.1"/>
<line class="st15" x1="584.6" y1="482.1" x2="584.6" y2="487.1"/>
<line class="st15" x1="562.6" y1="482.1" x2="562.6" y2="487.1"/>
<line class="st15" x1="541.5" y1="482.1" x2="541.5" y2="487.1"/>
<line class="st15" x1="519.5" y1="482.1" x2="519.5" y2="487.1"/>
<line class="st15" x1="498.3" y1="482.1" x2="498.3" y2="487.1"/>
<line class="st15" x1="477.1" y1="482.1" x2="477.1" y2="487.1"/>
<line class="st15" x1="455.2" y1="482.1" x2="455.2" y2="487.1"/>
<line class="st15" x1="433.9" y1="482.1" x2="433.9" y2="487.1"/>
<line class="st15" x1="412.6" y1="482.1" x2="412.6" y2="487.1"/>
<line class="st15" x1="390.9" y1="482.1" x2="390.9" y2="487.1"/>
<line class="st15" x1="369.5" y1="482.1" x2="369.5" y2="487.1"/>
<line class="st15" x1="347.5" y1="482.1" x2="347.5" y2="487.1"/>
<line class="st15" x1="326.9" y1="482.1" x2="326.9" y2="487.1"/>
<line class="st15" x1="304.9" y1="482.1" x2="304.9" y2="487.1"/>
<line class="st15" x1="283.4" y1="482.1" x2="283.4" y2="487.1"/>
<line class="st15" x1="261.6" y1="482.1" x2="261.6" y2="487.1"/>
<line class="st15" x1="240.2" y1="482.1" x2="240.2" y2="487.1"/>
<line class="st15" x1="219.2" y1="482.1" x2="219.2" y2="487.1"/>
<line class="st15" x1="197.2" y1="482.1" x2="197.2" y2="487.1"/>
<line class="st15" x1="175.9" y1="482.1" x2="175.9" y2="487.1"/>
<line class="st15" x1="154.2" y1="482.1" x2="154.2" y2="487.1"/>
<line class="st15" x1="133.2" y1="482.1" x2="133.2" y2="487.1"/>
<line class="st15" x1="111.6" y1="482.1" x2="111.6" y2="487.3"/>
<g>
	<g>
		<line class="st10" x1="761.2" y1="188.4" x2="765.8" y2="190.4"/>
		<polyline class="st11" points="769.5,191.9 771.8,192.8 816.5,289.5 818.5,291.1 		"/>
		<line class="st10" x1="820.1" y1="292.4" x2="824" y2="295.4"/>
	</g>
</g>
<g>
	<g>
		<path class="st16" d="M766,533c1.6,4.1,5.5,6.2,11.7,6.2h6.7c5.1,0,8.4,1.7,9.9,5.1c1.5-3.4,4.8-5.1,9.8-5.1h7.2
			c6.1-0.1,9.9-2.2,11.4-6.2l2.5,0.7c-1.1,3-2.8,5.2-5.1,6.7c-2.4,1.5-5.4,2.2-9.3,2.2H804c-5.4,0-8.1,2-8.1,5.9h-3.3
			c0-3.9-2.7-5.9-8.2-5.9h-6.9c-3.8,0-6.8-0.8-9.1-2.3s-4-3.7-5-6.6L766,533z"/>
	</g>
</g>
<g>
	<rect x="728.8" y="558.5" class="st0" width="131.5" height="34.8"/>
	<text transform="matrix(1 0 0 1 735.9938 570.551)" class="st1 st2 st3">CreditRiskMonitor </text>
	<text transform="matrix(1 0 0 1 766.6938 589.551)" class="st1 st2 st3">Forecast</text>
</g>
<g>
	<g>
		<line class="st23" x1="763.5" y1="459.6" x2="763.5" y2="464.6"/>
		<line class="st24" x1="763.5" y1="468.4" x2="763.5" y2="519.7"/>
		<line class="st23" x1="763.5" y1="521.6" x2="763.5" y2="526.6"/>
	</g>
</g>
<g>
	<g>
		<line class="st19" x1="820.8" y1="254.2" x2="817.3" y2="250.6"/>
		<line class="st20" x1="815.8" y1="248.9" x2="811" y2="244"/>
		<polyline class="st19" points="810.2,243.2 806.8,239.6 805.6,244.5 		"/>
		<line class="st21" x1="804.8" y1="248.4" x2="763.6" y2="424.8"/>
		<line class="st19" x1="763.2" y1="426.8" x2="762" y2="431.6"/>
	</g>
</g>
<line class="st25" x1="761.2" y1="163.5" x2="761.2" y2="480.8"/>
<g>
	<g>
		<line class="st23" x1="824.8" y1="459.6" x2="824.8" y2="464.6"/>
		<line class="st24" x1="824.8" y1="468.4" x2="824.8" y2="519.7"/>
		<line class="st23" x1="824.8" y1="521.6" x2="824.8" y2="526.6"/>
	</g>
</g>
<line class="st15" x1="84.5" y1="481.6" x2="829.6" y2="481.6"/>
<g>
	<rect x="69" y="499.2" class="st0" width="41.7" height="15.2"/>
	<text transform="matrix(1 0 0 1 75.5836 509.7481)" class="st2 st17">1987</text>
	<rect x="136.2" y="499.2" class="st0" width="35.8" height="15.2"/>
	<text transform="matrix(1 0 0 1 139.9573 509.7481)" class="st2 st17">1990</text>
	<rect x="246.4" y="499.2" class="st0" width="30.4" height="15.2"/>
	<text transform="matrix(1 0 0 1 247.4077 509.7481)" class="st2 st17">1995</text>
	<rect x="354" y="499.2" class="st0" width="30.8" height="15.2"/>
	<text transform="matrix(1 0 0 1 355.2427 509.7481)" class="st2 st17">2000</text>
	<rect x="462.7" y="499.2" class="st0" width="28.9" height="15.2"/>
	<text transform="matrix(1 0 0 1 462.8852 509.7481)" class="st2 st17">2005</text>
	<rect x="570.3" y="499.2" class="st0" width="28.6" height="15.2"/>
	<text transform="matrix(1 0 0 1 570.5261 509.7481)" class="st2 st17">2010</text>
	<rect x="677.8" y="499.2" class="st0" width="29.1" height="15.2"/>
	<text transform="matrix(1 0 0 1 678.1406 509.7481)" class="st2 st17">2015</text>
	<rect x="811.2" y="499.2" class="st0" width="31.4" height="15.2"/>
	<text transform="matrix(1 0 0 1 812.7617 509.7481)" class="st2 st17">2021</text>
</g>
<g>
	<circle class="st16" cx="618" cy="212.5" r="39"/>
	<g>
		<rect x="583.5" y="194.4" class="st0" width="68.9" height="36.1"/>
		<text transform="matrix(1 0 0 1 592.1048 209.4058)" class="st4 st2 st26">$700B</text>
		<text transform="matrix(1 0 0 1 596.2609 230.4058)" class="st4 st2 st26">LOST</text>
	</g>
</g>
<g>
	<ellipse class="st16" cx="484.3" cy="169.1" rx="49" ry="49"/>
	<g>
		<rect x="449" y="146.7" class="st0" width="70.6" height="44.8"/>
		<text transform="matrix(1 0 0 1 451.9595 165.4698)" class="st4 st2 st27">$720B</text>
		<text transform="matrix(1 0 0 1 457.1536 191.4698)" class="st4 st2 st27">LOST</text>
	</g>
</g>
<g>
	<g>
		<circle class="st5 pulse" cx="761.2" cy="105.5" r="81.1">
<!-- 			<animate attributeType="SVG" attributeName="r" begin="0s" dur="1.5s" repeatCount="indefinite" from="81.1" to="85"/> -->
           
            
		</circle>
		<circle class="st16" cx="761.2" cy="105.5" r="74.5"/>
	</g>
	<g>
		<rect x="712.8" y="71.7" class="st0" width="97" height="67.6"/>
		<text transform="matrix(1 0 0 1 716.4965 100.2007)" class="st4 st2 st28">$1.1T</text>
		<text transform="matrix(1 0 0 1 720.1697 139.2007)" class="st4 st2 st28">LOSS</text>
	</g>
</g>
<path id="blue-1" stroke="#4977BA" stroke-width="2" class="st18" d="M759.1,196.9c-0.6,5.5-1.9,10.9-4,16.1c-2.6-1.1-4.4-3.2-5.5-5.9c-0.4-0.9-1.8-1.2-2.6-0.7
	c-5.7,4.1-10.2,9.3-13,15.7c-2.5,5.7-2.8,11.8-3.8,17.8c-1.3-4.6-2.1-9.2-2.6-14c-0.1-1.3-1.1-2-2.4-1.8c-4.2,0.7-8.1,0.2-11.9-1.5
	c-1.1-0.5-3,0-2.8,1.6c2.3,18.2-5.1,33.5-14,48.8c-3.8,6.4-7.2,12.8-8.8,20.1c-0.9,3.9-1.4,7.9-2.7,11.7c-1.1,3-2.5,5.8-3.4,8.7
	c-3.8-1.4-6.9-3.6-9.5-6.9c-1-1.3-3.3-0.2-3.2,1.3c0.3,4.8-0.9,9.4-3.2,13.5c-1.6-1.9-3-3.9-4.9-5.6c-1-0.9-2.8-0.6-3.1,0.8
	c-1.4,5.5-3,11-5.5,16.2c-1.4,2.7-2.9,5.7-5.5,7.5c-1.3,0.9-3,1.4-3.9,2.7c-1.4,2-2,5.4-2.7,7.8c-0.9,2.7-1.8,5.5-2.6,8.2
	c-1.7,5.5-3.5,11.1-5.4,16.6c-5.1-4.3-12.5-11.2-16.7-2.8c-0.8,1.5-0.3,3.3-0.8,4.8c-1.4,3.9-4.4,4.3-7.7,5.8
	c-1.7,0.8-3.1,1.7-4.3,2.9c-1.7-6.5-3.3-13.1-4.1-19.7c-0.4-2.9-0.5-5-2-7.5c-2.2-3.5-2.9-7.4-3.9-11.4c-2.2-8.2-3.5-16.6-5.6-24.8
	c-1-3.9-2.6-7.6-3.9-11.4c-1.4-4.6-2-9.5-2.6-14.2c-3.6-30.3-0.5-64.2-15.6-91.8c-0.7-1.2-2.5-1.2-3.2,0c-3.9,6.8-6.8,14-9.8,21.3
	c-3.2,7.6-6.9,15-10,22.6c-3,7.4-4.7,14.7-5.7,22.6c-1.1,8.9-3.2,17.4-5.3,26.1c-2,8.3-4.3,16.4-5.5,24.8c-1.3,8.5-2.3,17-4.7,25.3
	c-4.7,15.9-8.5,32.2-12,48.5c-0.9-0.6-2-0.9-3.1-0.8c-3,0.3-4.9,3.1-6.5,5.4c-3.4,0.3-6.9,3.4-9.6,6.1c-2.6-5.6-8-8.8-12-13.5
	c-2.8-3.3-4.8-7.3-7.9-10.3c-3.3-3.2-6.4-4.5-7.5-9.4c-1.8-8-3.6-15.4-7.6-22.5c-4.7-8.4-6.7-18.3-9.1-27.6
	c-2.4-9.4-4.8-18.8-8-27.9c-3.1-8.8-7.2-17.1-11.1-25.6c-4.2-9.3-6.1-19.1-9.7-28.5c-2.1-5.4-5.4-13.3-12.4-13.1
	c-2.9,0.1-5,1.7-6.3,4.2c-0.6,1.3-0.7,2.8-1.3,4.1c-1.8,3.6-4,3-7.3,2.4c-3.4-0.6-6.2,0.4-8.8,2.6c-3,2.5-4.5,11.1-9.7,9.2
	c-1-0.4-2,0.4-2.3,1.3c-1.9,6-3.5,12.1-4.8,18.3c-1-1.3-2-2.5-3.3-3.6s-3-0.3-3.2,1.3c-0.8,6.6-1.8,13.3-3.6,19.7
	c-1.6,6.1-4.5,11.5-6.8,17.4c-2,5-3.6,10.7-4.6,16c-0.9,5.1-6.3,9.1-9.2,13.3c-3,4.5-3.9,9.7-4.7,14.9c-1,6.4-2.5,12.8-4.4,19
	c-2.1,6.7-4.5,13.3-7.5,19.7c-2.8,5.8-4.1,12.1-7,17.8c0,0.1-0.1,0.2-0.1,0.2c-2.3,1.2-6.4,3.8-8.2,3.2c-2.3-0.8-3.4-6.4-4.1-8.6
	c-0.4-1.3-2.1-1.9-3.1-0.8c-3.7,3.8-10.5-3.9-14-5.5c-0.9-0.4-2.1-0.3-2.6,0.7c-1.5,3.3-4.6,4.5-8,2.6c-1.1-0.6-2.4,0-2.8,1.1
	c-3.3,9.7-6.8,19.4-10.5,28.9c-5.3-1.3-9.2,8.6-14.6,4.2c-1.1-0.9-2.7-0.6-3.1,0.8c-0.6,2.4-1.5,4.6-2.7,6.8c-0.9-1.2-1.9-2.3-3-3.5
	c-0.7-0.7-2-0.8-2.7,0c-4.2,5.1-9.2,9.1-14.9,12c-1.3-11.7-6.6-22.3-10.4-33.4c-4.4-12.8-7.4-26.2-10.7-39.3
	c-6.9-27.6-13.3-55.3-19.7-83c-0.4-1.6-2.7-1.8-3.4-0.4c-3.4,6.4-12.1,19.6-20.6,11.1c-1-1-2.7-0.5-3.1,0.8
	c-1.3,3.9-2.5,7.8-3.7,11.8c-0.6-0.7-1.3-1.3-1.9-2c-0.7-0.8-1.9-0.6-2.7,0c-3.2,2.7-5.1,5.9-5.8,9.9c-2.3,1.6-4.8,3.2-6.8,5.2
	c-0.9,1-1.6,2.1-2.4,3.1c-1.8,2.1-3.2,2.3-5.7,3.1c-5.7,1.9-6.1,6.5-9.5,11.1c-1.7,2.2-3.1,4.3-3.9,7c-0.5,2.1-1.3,2.6-2.5,4.4
	c-4.1,6.2-7.4,12.1-12.9,17.3c-1.9,1.5,0.7,4.2,2.5,2.5c4.4-4.2,8.3-8.9,11.4-14.2c1.2-2.1,2.8-3.9,4-5.8c1.6-2.6,1.6-5.7,3.6-8.3
	c1.3-1.8,2.6-3.3,3.6-5.4c1.2-2.6,1.2-3.9,4.6-5.1c1.1-0.4,2.2-0.4,3.3-0.8c2.2-0.9,3.3-2.2,4.7-4c2.5-3.3,5.7-5.3,9-7.6
	c0.6-0.4,0.9-1.1,0.8-1.7c0.6-2.7,1.6-4.9,3.4-6.8c0.9,1,1.8,1.9,2.7,2.9c1,1.1,2.7,0.5,3.1-0.8c1.3-4,2.6-8.2,3.9-12.2
	c3.5,2.1,7.7,2.2,11.6,0.6c4.6-1.9,7.7-5.8,10.2-10c5.8,25.6,11.7,51.1,18.1,76.5c3.2,12.9,6.3,26,10.3,38.7
	c4,12.5,10.6,24.4,11.3,37.7c0.1,1.5,1.5,2.2,2.8,1.6c6.6-2.8,12.2-6.9,16.9-12.2c1,1.1,1.9,2.3,2.7,3.7c0.7,1.3,2.5,1.2,3.2,0
	c1.6-2.5,2.9-5.1,3.9-7.8c1.5,0.7,3.2,1,5,0.7c2.2-0.4,8.4-6.3,9.8-5.1c1.3,1.2,3.1,0.1,3.3-1.3c0-0.1,0.1-0.1,0.1-0.2
	c3.6-9.4,7.1-19,10.4-28.5c4.1,1.5,7.7,0.5,10.1-3.2c4.7,2.9,9.4,8.5,14.5,5.8c1,3.5,2.6,8.2,5.1,9.4c3.2,1.5,9.7-3.2,12.5-4.6
	c0.2-0.1,0.3-0.1,0.5-0.3c0.4-0.2,0.6-0.6,0.6-0.9c2.8-5.6,4.1-11.8,6.9-17.5c2.8-5.8,5.1-11.8,7.1-17.9c2.2-6.5,3.9-13.2,5-20
	c1.2-7.5,2.5-13.1,7.3-19.2c3.2-4,5.9-6.3,6.9-11.4c1.2-6.1,3.2-12.6,5.8-18.2c4.6-10.1,7.2-20.3,8.7-31.1c1,1.3,1.8,2.7,2.6,4.1
	c0.7,1.3,3.1,1.2,3.4-0.4c1.3-7.1,2.9-14.1,5.1-21c5.1,0.8,7-4.1,9.4-8.1c1.8-2.9,4.3-4.5,7.9-4.1c1.4,0.2,2.5,0.9,4,0.9
	c2.2,0.1,4.1-0.8,5.5-2.5c2.4-2.9,1.9-9.7,7.2-8.8c5.2,0.9,7.5,9.9,8.9,14.1c2.6,8.2,4.7,16.4,8.3,24.3c3.9,8.8,8.2,17.3,11.4,26.4
	c2.9,8.6,5.2,17.4,7.4,26.2c2.1,8.1,3.8,16.8,7.2,24.5c1.6,3.6,3.9,6.8,5.5,10.4c1.8,4,2.6,9,3.7,13.2c0.8,3.1,1,6.2,3.1,8.8
	c2.7,3.4,6.5,5.4,9.2,9c2.6,3.5,4.8,6.8,8,9.7c3.6,3.3,7.5,6.3,8.7,11.3c0.4,1.4,2.1,1.7,3.1,0.8c1.7-1.5,7.2-7.5,9.5-7
	c0.9,0.2,1.6-0.1,2.1-0.9c0.5-0.5,0.8-1.1,1.1-1.8c1.2-1.9,2.8-2.1,5-0.7c0.2,1.9,3.2,2.6,3.6,0.4c0-0.1,0.1-0.3,0.1-0.4
	s0-0.1,0-0.2c3.7-17.2,7.6-34.6,12.6-51.5c2.3-7.8,3.6-15.8,4.7-23.9c1.2-8.6,3.3-16.9,5.4-25.3c1.9-7.6,4-15.4,5.1-23.1
	c1.2-8.3,2.1-16.2,5-24.1c2.9-7.8,6.7-15.1,9.9-22.7c2.9-6.9,5.7-13.9,9.1-20.6c6.8,13.9,8.9,29.3,10.1,44.7
	c1.2,15.5,1.9,31.1,4,46.5c1.1,8.1,4.3,15.3,6.2,23.2c1.9,7.9,3.3,16,5.4,23.9c0.9,3.4,1.4,7.4,3,10.5c0.8,1.6,1.8,2.5,2.3,4.2
	s0.5,3.6,0.8,5.3c1.1,7.9,3.2,15.7,5.2,23.5c0.6,2.1,3.5,1.5,3.7-0.5c0.6-6.6,11.7-5.1,13.9-11.4c1-2.9,0.2-8.9,4.9-6.8
	c3.2,1.5,6.5,4.8,9.4,6.9c1,0.8,2.4-0.1,2.8-1.1c2.2-6,4.1-12.2,6-18.3c0.9-3.1,1.9-6.1,2.9-9.1c1.3-4,2.2-6.1,5.5-8.6
	c6.4-5.1,9.2-14.4,11.3-22.4c1.4,1.7,2.7,3.4,4.3,4.9c0.9,0.8,2.3,0.7,2.9-0.4c2.6-3.9,4.3-8.4,4.9-13c2.8,2.5,6.1,4.2,9.8,5.3
	c0.9,0.3,2.1-0.3,2.3-1.3c0.8-3.8,2.7-7,3.9-10.6c1.3-3.8,1.8-7.8,2.7-11.7c2-8.8,6.7-16.1,11.1-23.7c7.8-13.4,13.3-27.8,12.2-43.3
	c3.1,1,6.2,1.3,9.5,1c0.7,6.7,2.2,13.1,4.6,19.3c0.7,1.7,3,1.9,3.6,0c2.2-6.8,1.9-14.1,4.1-20.9c2-6.2,5.9-11.5,10.9-15.5
	c1.8,3.1,4.6,5.3,8.3,6.2c0.7,0.2,1.8-0.1,2.1-0.9c2.8-6.2,4.4-12.6,5.1-19.4C763.1,194.5,759.5,194.5,759.1,196.9z">
	<animate attributeType="SVG" attributeName="stroke-width" begin="0.5s" dur="2s" repeatCount="indefinite" from="2" to="3"/>
            <animate attributeType="CSS" attributeName="stroke-width" begin="0.5s"  dur="2s" repeatCount="indefinite" from="2" to="3" />
            <animate attributeType="CSS" attributeName="opacity" begin="0.5s"  dur="2s" repeatCount="indefinite" from="0.3" to="1"/>
            <animate attributeType="CSS" attributeName="opacity" begin="0.5s"  dur="2s" repeatCount="indefinite" from="1" to="0.3"/>
	
	</path>
	<path id = "red-1" class="st5" stroke="#C82A2D" stroke-width="2" d="M758.2,440c-1.4,2.4-2.5,5.5-5,3.3c-2.2-1.9-4-5.5-4.8-8.3c-1.8-6.6-1.6-14.2-2.3-21c-0.5-5.1-1.5-9.4-5.1-13.2
	c-4.5-4.8-10.3-8.7-15.9-12c-1.4-0.8-3.3-0.1-3.7,1.5c-2,7.3-2.4,14.7-2.4,22.2c0,3.9,0.1,7.9,0,11.8c0,0.3-0.1,1.3-0.2,2.3
	c-5.3-5.5-10.5,1.8-13.9,8.2c-1-4.9-2-9.9-3.6-14.7c-0.5-1.6-2.9-2.7-4.2-1.1c-1.8,2.3-2.9,4.7-3.6,7.5c-0.4,1.5-0.7,3.1-1.2,4.6
	c-0.3,0.9-0.6,2.2-1.2,3c-1.1,1.5-0.1,1.2-1.5,0.9c-1.7-0.5-2.3-2-4.4-1.7c-2.1,0.4-3.7,2.3-4.8,4c-3,4.8-3.9,10.9-4.5,16.4
	c-0.2,1.4-0.1,2.9-0.4,4.3c-0.5,2-0.5,2.1-2.1,1.2c-1.2-0.6-2.2-2-3.4-2.9c-1.7-1.3-3.6-2.2-5.6-3c-3.6-1.6-7.4-2.7-11.1-4.2
	c-3.7-1.5-8-3.8-12.2-3.8c-2.7,0-6.4,1.6-8.6,3.2c-3,2.2-4.3,6-7.4,8.1c-2.4,1.5-4.7,1.3-7.4,1.1c-5.7-0.3-9.5-1.1-10-7.3
	c-0.6-7.3-0.7-14.5-2.1-21.7c-0.8-4.3-1.9-8.5-3.4-12.6c-1.4-3.9-3.3-7.4-3.3-11.7c0-9.9-3-19.4-3.2-29.2c0-0.6-0.2-1.2-0.5-1.5
	c-1.5-21.2-2.9-42.4-4.3-63.7c-0.7-10.2-1.2-20.4-2.1-30.5c-0.8-8.7-2.5-17.3-7.3-24.8c-0.9-1.4-2.7-1.6-3.9-0.5
	c-7.7,6.6-9,16.8-9.2,26.4c-0.4,13.3-1,26.6-2.1,39.8c-2.3,27.5-4.6,55.1-7,82.6c-0.6,6.8-0.8,13.7-1.2,20.5
	c-0.4,6.7-2.5,12-4.2,18.2c-1.4,5.3-3.1,10.9-5.1,16c-1.7,4.4-5.8,12.6-11.1,12.7c-4.5,0.1-12.1-1-14.8-4.8c-2.9-3.9-3-10.4-4.4-15
	c-1.8-5.9-3.2-11.8-4.2-17.9c-0.9-5.8-0.6-11.8-1.6-17.6c-0.6-3.8-2.9-6.6-7.1-6.1c-4.6,0.6-7.3,4.7-9.1,8.6c-3,6.7-5.4,12.6-7,19.8
	c-1.6,7.1-3,14.2-5.1,21.3c-2.9,0.1-6-0.2-8.3-1.8c-3.7-2.3-2.9-7.5-4-11.2c-1.2-3.8-2.8-7.2-3.4-11.2c-0.7-4.6-1-9.2-2.1-13.7
	c-4.4-19-9.8-37.2-11.8-56.8c-2-18.9-2.5-37.8-5.3-56.6c-2.9-19.3-4.8-38.7-7.7-58c-3.3-21.8-7.2-43.4-11.2-65c0-0.1,0-0.1,0-0.2
	l0,0c-0.1-0.3-0.1-0.5-0.2-0.8c-0.6-2.9-4.7-2-4.9,0.7c-2.1,23.5-4.3,47.1-5,70.7c-0.2,5.6-0.9,11.1-2,16.6
	c-1,4.9-1.4,11.7-5.2,15.1c-2.5,2.2-3,4.1-2.5,7.4c0.7,5.2-3.6,10.8-5,15.8c-1.2,4.4-2.4,8.8-2.8,13.4c-0.2,3.1-0.3,5.9-1.5,8.9
	c-1.2,2.9-2.9,5.6-4.3,8.4c-4.6,8.9-4.6,18.5-6.4,28.2c-1,5.3-2.3,10.5-3.4,15.8c-0.5,2.3-0.1,6.8-1.5,8.7c-0.9,1.3-2.2,0.2-4,0
	c-0.9-0.1-1.6-0.2-2.5-0.1c-3.2,0.6-7.4,2.8-10.1,4.5c-3.8,2.5-6.5,5.5-7.9,9.8c-1.4,4.4-4.5,7.6-4.5,12.3c0,2.6,0.4,3.8-0.9,6.1
	c-0.8,1.4-1.1,2.4-1.3,4c-0.6,4.5,0,8.8-5.8,9.2c-1.9,0.1-3.2,2-2.2,3.8c0.8,1.4-1.4,10.3-4.4,10.3c-1.8,0-3.7-2.4-5.8-2.4
	c-1.9,0-2.9,1.1-4.5,2c-4.1,2.3-6.6-0.8-7.6-5c-0.3-1.2-1.9-2.2-3.1-1.7c-3.4,1.4-6.7,1.8-10.1,0.5c-2-0.7-3.3,1.4-3.1,3.1
	c0.5,3.1-2.7,5.1-5.3,4.2c-1.5-0.5-2.9-1.8-4.1-2.9c-1.7-1.6-3.7-3.4-4.9-5.4c-1.8-2.8-1.8-4.4-5.4-4.9c-2.7-0.3-4.1-1.1-6.5-1.7
	c-1.6-0.4-2.9-0.2-4.4,0.4c-3.2,1.3-6.4,4.4-7.9,7.4c-0.7,1.5-1,3.2-1.4,4.8c-0.1,0.6-0.2,1.9-0.6,2.3c0.5,0.7,0.4,0.8-0.1,0.3
	c-0.3-0.2-0.5-0.4-0.7-0.6c-2-1.1-3.5-2.6-5.9-1.3c-4.6,2.6-4.3,9.6-6.9,14c-0.7-1.8-1.5-3.6-2-5.5c-0.7-2.4-0.7-5-3-6.4
	c-2-1.2-3.9-0.5-5.8,0.4c-4.6,2.3-8.9,0.9-12.4-2.9c-3.1-3.3-3.9-8.4-4.7-12.7c-0.9-4.7-1.6-9.5-2.3-14.3
	c-1.5-9.8-3.7-19.5-5.4-29.3c-3.6-19.9-6.8-39.9-10.9-59.8c-2-9.6-1.8-19.3-3.2-29c-1.4-10-3-19.9-4.4-29.8
	c-1.4-10.3-1.9-20.8-3.7-31c-0.8-4.3-2-8.7-4.2-12.5c-1.9-3.3-4.8-5.2-7.8-7.5c-1.3-0.9-3.4,0-3.7,1.5c-0.7,3.3-2.4,5.9-2.9,9.3
	c-0.6,4.8-0.9,9.7-1.3,14.5c-0.8,9-1.9,18-2.8,27c-2,18.6-3.7,37.2-7.6,55.5c-1.9,9-4.3,17.9-7.1,26.7c-2.5,7.9-3.6,15.7-4.3,24
	c-0.4,4.5-0.7,9.1-1.9,13.5c-1.1,4.1-2.8,7.9-4,12c-2.3,7.5-3.7,15.3-5.7,22.9c-0.6-0.5-1.3-1.1-1.8-1.7c-2.2-2.7-5.7,0.8-3.5,3.2
	c1.5,1.6,3.4,2.8,5,4.5c1.3,1.4,3.7,0.7,4.2-1.1c2.5-8.8,4-18,6.7-26.8c2.4-7.9,5.1-15,5.8-23.3c0.8-9,1.7-17.6,4.4-26.2
	c2.8-8.8,5.2-17.7,7.1-26.7c3.7-17.5,5.6-35.2,7.4-53c0.9-9,2.1-18,2.9-27c0.4-4.5,0.8-9,1.2-13.6c0.3-2.9,0.4-5.7,1.5-8.4
	c0.1-0.3,0.3-0.6,0.4-0.9c2.3,2,4,4,5.2,7.3c1.6,4.3,2.3,9,2.9,13.5c1,8.7,1.8,17.4,3.1,26.1c1.4,9.6,3,19.2,4.3,28.9
	c1.3,9.4,1,18.7,3,28c4,19.2,7.1,38.6,10.5,57.9c1.7,9.6,3.7,19.1,5.3,28.6c1.5,8.4,2,17.3,4.8,25.4c2.2,6.5,7.8,12.4,15,13.3
	c1.3,0.2,2.6,0.1,3.9-0.2c0.9-0.3,3-2.1,3.8-2c1.5,0.2,4.3,10.3,4.5,12.1c0.2,1.8,2,3.3,3.8,2.2c2.9-1.8,4.2-4.9,5.5-7.9
	c0.9-2.1,1.6-4.2,2.5-6.3c0.2-0.4,0.6-1.8,1.1-2.2c-0.1,0.2,0.5,0.4,1.1,0.9c2.1,1.6,4.7,2.3,6.7,0.1c3-3.3,2-8.3,5.3-11.7
	c1.7-1.8,3.5-2.6,6.1-1.8c0.8,0.2,1.5,0.8,2.3,1.1c0.7,0.2,2.4,0.1,3,0.3c0.2,0.1,0.4,0.2,0.5,0.2c0.2,0.2,0.4,0.5,0.7,0.9
	c2.8,3.5,5.4,7.1,9.2,9.8c6,4.2,13.6,1.8,14.9-4.6c2.5,0.4,5,0.1,7.5-0.6c1.4,3.2,3.9,6.3,7.1,7.5c1.7,0.6,3.2,0.6,4.8-0.2
	c0.9-0.4,1.5-1.3,2.3-1.7c2.3-1.2,2.3-0.8,4.6,0.2c3.9,1.7,7,1.6,9.2-2.5c2-3.7,4.3-7.2,3.7-11.1c4.7-1.4,6.5-5.1,7.2-10.7
	c0.2-1.9,0.5-3,1.4-4.7c0.9-1.6,1.3-2,1.4-3.9c0.1-2.6-0.8-5.1,0.4-7.6c1.1-2.3,2.6-3.9,3.3-6.4c1.5-5.4,5.2-8.3,10.2-10.4
	c1.7-0.7,3.6-1.7,5.4-1.6c1.5,0.1,3,0.9,4.6,0.8c6.2-0.5,5.4-10.4,6.6-14.8c2.7-10.7,3.2-21.7,5.6-32.4c1.2-5.3,3.9-9.6,6.3-14.4
	c2.6-5.3,2.9-9.7,3.6-15.5s2.3-11.9,4.8-17.1c0.8-1.7,1.8-3.3,2.4-5c1-2.9-0.5-5.1,0.1-7.7c0.4-1.7,2.4-2.3,3.4-3.6
	c1.1-1.3,1.4-2.4,1.8-4.1c1.5-5.8,2.8-11.7,3.7-17.6c1-6.3,1.1-12.7,1.2-19.1c0.2-7,0.9-13.9,1.5-20.8c0.6-7.8,1.2-15.7,1.9-23.6
	c2.7,14.6,5.2,29.2,7.4,44c3.2,20.6,5.3,41.3,8.3,61.9c3.1,20.9,3.4,42.1,6,63c1.2,9.7,3,19.3,5.4,28.7c2.5,9.8,5.8,19.5,7,29.5
	c0.6,4.9,1.1,9.7,2.9,14.3c1.5,3.7,1.7,7.5,2.9,11.2c2.4,7,10.7,8.5,17.3,8c1.1-0.1,2.1-0.7,2.4-1.8c3.9-12.6,4.4-27.2,10.8-38.9
	c1.1-2,1.8-5.1,3.5-6.6c4.9-4.3,4.8,1.2,4.9,4.4c0.3,6,1.1,12.1,2.3,18c1.2,5.9,3.2,11.6,4.5,17.4c1.1,4.5,1.5,9.4,4.5,13.2
	c2.3,2.9,5.6,4.2,9.2,4.9c3.7,0.8,8.5,2,12.2,1c8-2.1,12.3-14,14.3-21c1.5-5.2,3.2-10.4,5-15.4c2-5.6,2.7-11.1,3-17.1
	c1.2-26.7,4.1-53.3,6.3-79.9c1.3-15.5,2.9-31.1,3.6-46.7c0.5-11-1.7-26,5.9-35.1c3.9,7.5,4.8,16,5.4,24.5c0.7,9.8,1.3,19.6,2,29.5
	c1.4,20.5,2.8,41.1,4.2,61.6c0,0.5,0.2,1,0.5,1.3c0.4,8.9,3.1,17.5,3.1,26.3c0,8,4,14.6,5.9,22.2c2.1,8.7,2.2,17.1,3,25.8
	c0.3,2.9,0.6,6.4,3.1,8.2c2.8,2.1,6.1,2.9,9.5,3.1c5.8,0.3,10.4,0.5,14.8-3.7c4-3.8,6.2-9.1,12.8-8.2c4.7,0.7,9.4,3.5,13.8,5.1
	c4.7,1.7,8.4,3.4,12.3,6.5c2,1.6,4.5,3.5,7.2,2.6c5-1.6,4.3-10.3,5-14.2c0.6-3.3,1.2-8.1,3.4-10.9c1.5-1.9,0.9-1.4,2.6-0.2
	c0.8,0.6,1.6,1,2.6,1c5.6,0.1,6.9-6.8,8.4-12.4c1.2,4.9,2,9.9,3.2,14.8c0.5,2,3.6,2.5,4.6,0.6c1.3-2.7,2.4-5.5,3.8-8.1
	c0.7-1.2,1.4-2.5,2.4-3.5c0.3-0.3,2.7-2.5,2.5-2.5c1.2,0.1,2.3,3.5,3.9,4c1.4,0.4,2.7-0.2,3.6-1.3c3-3.4,1.7-11.2,1.7-15.1
	c-0.1-7.5-0.1-14.8,1.4-22.2c6.9,4.2,14.3,9.5,15.4,17.7c1,7.6,0.8,15.5,2.4,23.1c0.7,3.4,2.4,6.2,4.5,9c1.3,1.7,2.5,4,4.5,4.8
	c4.7,2.1,8.2-3.5,10.2-6.9C764.1,439.7,759.8,437.2,758.2,440z">
	<animate attributeType="SVG" attributeName="stroke-width" begin="0.6s" dur="2.1s" repeatCount="indefinite" from="2" to="3"/>
            <animate attributeType="CSS" attributeName="stroke-width" begin="0.6s"  dur="2.1s" repeatCount="indefinite" from="2" to="3" />
            <animate attributeType="CSS" attributeName="opacity" begin="0.6s"  dur="2.1s" repeatCount="indefinite" from="0.3" to="1"/>
            <animate attributeType="CSS" attributeName="opacity" begin="0.6s"  dur="2.1s" repeatCount="indefinite" from="1" to="0.3"/>
	</path>
</svg>
